<svg width="19" height="19" viewBox="0 0 19 19" fill="none" xmlns="http://www.w3.org/2000/svg">
<g clip-path="url(#clip0_90_926)">
<path d="M19 12.6662V16.6245C19 17.2544 18.7498 17.8585 18.3044 18.3039C17.859 18.7493 17.2549 18.9995 16.625 18.9995H12.6667C11.556 18.9984 10.4652 18.7052 9.50368 18.1494C8.54213 17.5936 7.74365 16.7947 7.18833 15.8328C7.78515 15.8286 8.37993 15.7628 8.96325 15.6365C9.40749 16.192 9.97104 16.6404 10.6121 16.9484C11.2532 17.2565 11.9554 17.4164 12.6667 17.4162H16.625C16.835 17.4162 17.0363 17.3328 17.1848 17.1843C17.3333 17.0358 17.4167 16.8345 17.4167 16.6245V12.6662C17.4165 11.9547 17.2561 11.2523 16.9475 10.6112C16.6389 9.9701 16.1899 9.40669 15.6338 8.96276C15.7612 8.37956 15.828 7.78477 15.8333 7.18785C16.7952 7.74316 17.5941 8.54165 18.1499 9.5032C18.7057 10.4647 18.9989 11.5555 19 12.6662ZM14.2318 7.63989C14.3058 6.61994 14.1594 5.596 13.8026 4.63765C13.4457 3.6793 12.8867 2.809 12.1636 2.08589C11.4405 1.36278 10.5702 0.803795 9.61186 0.446931C8.65352 0.0900674 7.62958 -0.0563175 6.60962 0.0177237C4.80218 0.224137 3.13257 1.08424 1.91518 2.43606C0.697796 3.78788 0.0166465 5.53815 0 7.35726L0 11.3473C0 13.3518 1.19304 14.2495 2.375 14.2495H6.8875C8.70739 14.2338 10.4587 13.5532 11.8115 12.3357C13.1643 11.1182 14.0251 9.44807 14.2318 7.63989ZM11.0437 3.20656C11.6058 3.76983 12.0403 4.44726 12.3178 5.193C12.5953 5.93874 12.7094 6.73539 12.6524 7.52906C12.4834 8.94113 11.8041 10.2427 10.7424 11.1889C9.68062 12.135 8.30964 12.6604 6.8875 12.6662H2.375C1.64033 12.6662 1.58333 11.6568 1.58333 11.3473V7.35726C1.58993 5.93573 2.11585 4.56561 3.0621 3.50476C4.00835 2.44391 5.3097 1.76546 6.72125 1.5971C6.85267 1.5876 6.98408 1.58285 7.1155 1.58285C7.84484 1.58217 8.56716 1.72522 9.24119 2.00382C9.91522 2.28243 10.5277 2.69112 11.0437 3.20656Z" fill="#846399"/>
</g>
<defs>
<clipPath id="clip0_90_926">
<rect width="19" height="19" fill="white"/>
</clipPath>
</defs>
</svg>
