<svg width="19" height="19" viewBox="0 0 19 19" fill="none" xmlns="http://www.w3.org/2000/svg">
<g clip-path="url(#clip0_106_92)">
<path d="M12.6669 6.33335C12.5184 6.18494 12.3171 6.10156 12.1072 6.10156C11.8973 6.10156 11.6959 6.18494 11.5475 6.33335L9.50022 8.3806L7.45297 6.33335C7.30366 6.18914 7.10369 6.10935 6.89612 6.11115C6.68854 6.11296 6.48998 6.19621 6.3432 6.343C6.19642 6.48978 6.11316 6.68834 6.11136 6.89591C6.10955 7.10348 6.18935 7.30346 6.33356 7.45277L8.38081 9.50002L6.33356 11.5473C6.18935 11.6966 6.10955 11.8966 6.11136 12.1041C6.11316 12.3117 6.19642 12.5103 6.3432 12.657C6.48998 12.8038 6.68854 12.8871 6.89612 12.8889C7.10369 12.8907 7.30366 12.8109 7.45297 12.6667L9.50022 10.6194L11.5475 12.6667C11.6968 12.8109 11.8968 12.8907 12.1043 12.8889C12.3119 12.8871 12.5105 12.8038 12.6572 12.657C12.804 12.5103 12.8873 12.3117 12.8891 12.1041C12.8909 11.8966 12.8111 11.6966 12.6669 11.5473L10.6196 9.50002L12.6669 7.45277C12.8153 7.30431 12.8987 7.10298 12.8987 6.89306C12.8987 6.68314 12.8153 6.48181 12.6669 6.33335Z" fill="#846399"/>
<path d="M9.5 0C7.62108 0 5.78435 0.557166 4.22209 1.60104C2.65982 2.64491 1.44218 4.12861 0.723149 5.86451C0.00411622 7.60041 -0.184015 9.51054 0.182544 11.3534C0.549104 13.1962 1.45389 14.8889 2.78249 16.2175C4.11109 17.5461 5.80383 18.4509 7.64665 18.8175C9.48947 19.184 11.3996 18.9959 13.1355 18.2769C14.8714 17.5578 16.3551 16.3402 17.399 14.7779C18.4428 13.2157 19 11.3789 19 9.5C18.9973 6.98128 17.9955 4.5665 16.2145 2.7855C14.4335 1.00449 12.0187 0.00272419 9.5 0V0ZM9.5 17.4167C7.93424 17.4167 6.40363 16.9524 5.10174 16.0825C3.79985 15.2126 2.78515 13.9762 2.18596 12.5296C1.58676 11.083 1.42999 9.49122 1.73545 7.95554C2.04092 6.41986 2.79491 5.00924 3.90208 3.90207C5.00924 2.79491 6.41986 2.04092 7.95554 1.73545C9.49122 1.42998 11.083 1.58676 12.5296 2.18595C13.9762 2.78515 15.2126 3.79985 16.0825 5.10174C16.9524 6.40363 17.4167 7.93424 17.4167 9.5C17.4144 11.5989 16.5795 13.6112 15.0954 15.0954C13.6112 16.5796 11.5989 17.4144 9.5 17.4167Z" fill="#846399"/>
</g>
<defs>
<clipPath id="clip0_106_92">
<rect width="19" height="19" fill="white"/>
</clipPath>
</defs>
</svg>
