<svg width="19" height="19" viewBox="0 0 19 19" fill="none" xmlns="http://www.w3.org/2000/svg">
<g clip-path="url(#clip0_90_928)">
<path d="M9.5 0C7.62108 0 5.78435 0.557165 4.22209 1.60104C2.65982 2.64491 1.44218 4.12861 0.723149 5.86451C0.00411622 7.6004 -0.184015 9.51054 0.182544 11.3534C0.549104 13.1962 1.45389 14.8889 2.78249 16.2175C4.11109 17.5461 5.80383 18.4509 7.64665 18.8175C9.48947 19.184 11.3996 18.9959 13.1355 18.2768C14.8714 17.5578 16.3551 16.3402 17.399 14.7779C18.4428 13.2156 19 11.3789 19 9.5C18.9973 6.98128 17.9955 4.5665 16.2145 2.78549C14.4335 1.00449 12.0187 0.00272419 9.5 0V0ZM9.5 17.4167C7.93424 17.4167 6.40363 16.9524 5.10174 16.0825C3.79985 15.2126 2.78515 13.9762 2.18596 12.5296C1.58676 11.083 1.42999 9.49121 1.73545 7.95553C2.04092 6.41985 2.79491 5.00924 3.90208 3.90207C5.00924 2.7949 6.41986 2.04092 7.95554 1.73545C9.49122 1.42998 11.083 1.58676 12.5296 2.18595C13.9762 2.78515 15.2126 3.79985 16.0825 5.10173C16.9524 6.40362 17.4167 7.93423 17.4167 9.5C17.4144 11.5989 16.5795 13.6112 15.0954 15.0954C13.6112 16.5795 11.5989 17.4144 9.5 17.4167Z" fill="#846399"/>
<path d="M9.49935 7.91699H8.70768C8.49772 7.91699 8.29636 8.0004 8.14789 8.14887C7.99942 8.29733 7.91602 8.4987 7.91602 8.70866C7.91602 8.91862 7.99942 9.11999 8.14789 9.26845C8.29636 9.41692 8.49772 9.50033 8.70768 9.50033H9.49935V14.2503C9.49935 14.4603 9.58276 14.6617 9.73123 14.8101C9.87969 14.9586 10.0811 15.042 10.291 15.042C10.501 15.042 10.7023 14.9586 10.8508 14.8101C10.9993 14.6617 11.0827 14.4603 11.0827 14.2503V9.50033C11.0827 9.0804 10.9159 8.67767 10.6189 8.38074C10.322 8.08381 9.91928 7.91699 9.49935 7.91699Z" fill="#846399"/>
<path d="M9.5 6.33301C10.1558 6.33301 10.6875 5.80135 10.6875 5.14551C10.6875 4.48967 10.1558 3.95801 9.5 3.95801C8.84416 3.95801 8.3125 4.48967 8.3125 5.14551C8.3125 5.80135 8.84416 6.33301 9.5 6.33301Z" fill="#846399"/>
</g>
<defs>
<clipPath id="clip0_90_928">
<rect width="19" height="19" fill="white"/>
</clipPath>
</defs>
</svg>
