<svg width="19" height="19" viewBox="0 0 19 19" fill="none" xmlns="http://www.w3.org/2000/svg">
<g clip-path="url(#clip0_344_446)">
<path d="M18.8692 6.9619C18.7073 6.44644 18.3838 5.99679 17.9465 5.67942C17.5092 5.36206 16.9815 5.19385 16.4412 5.19965H12.9824L11.9319 1.92532C11.7667 1.40991 11.442 0.960287 11.0048 0.641286C10.5676 0.322285 10.0403 0.150391 9.49906 0.150391C8.95782 0.150391 8.43057 0.322285 7.99333 0.641286C7.5561 0.960287 7.23147 1.40991 7.06627 1.92532L6.01573 5.19965H2.55693C2.01839 5.20042 1.49387 5.37135 1.05829 5.68803C0.622704 6.00471 0.298337 6.45095 0.131517 6.963C-0.0353027 7.47504 -0.036041 8.02671 0.129407 8.53921C0.294856 9.0517 0.618028 9.4988 1.05276 9.81665L3.86793 11.875L2.7976 15.1897C2.62463 15.7038 2.62244 16.26 2.79135 16.7755C2.96027 17.2909 3.29124 17.738 3.73493 18.05C4.17102 18.372 4.69949 18.5445 5.2416 18.5418C5.7837 18.5391 6.31042 18.3613 6.74327 18.0349L9.49906 16.0067L12.2556 18.0326C12.6909 18.3528 13.2166 18.5267 13.7569 18.5293C14.2973 18.5319 14.8246 18.3631 15.263 18.0472C15.7014 17.7313 16.0283 17.2845 16.1968 16.771C16.3652 16.2576 16.3666 15.7039 16.2005 15.1897L15.1302 11.875L17.9485 9.81665C18.3882 9.50279 18.7152 9.0557 18.881 8.54155C19.0468 8.0274 19.0427 7.47352 18.8692 6.9619ZM17.0144 8.53811L13.7337 10.9361C13.5989 11.0344 13.4987 11.1727 13.4472 11.3314C13.3958 11.49 13.3957 11.6609 13.4471 11.8196L14.694 15.675C14.7571 15.8705 14.7565 16.081 14.6924 16.2763C14.6283 16.4715 14.504 16.6413 14.3373 16.7614C14.1706 16.8815 13.97 16.9457 13.7646 16.9446C13.5591 16.9436 13.3593 16.8774 13.1938 16.7556L9.96773 14.3806C9.83185 14.2808 9.66766 14.227 9.49906 14.227C9.33047 14.227 9.16627 14.2808 9.03039 14.3806L5.80435 16.7556C5.63896 16.879 5.43855 16.9466 5.23218 16.9485C5.02582 16.9503 4.82422 16.8864 4.65661 16.766C4.48901 16.6456 4.36411 16.4749 4.30002 16.2788C4.23593 16.0826 4.23599 15.8711 4.30018 15.675L5.55102 11.8196C5.60241 11.6609 5.60237 11.49 5.55091 11.3314C5.49944 11.1727 5.39918 11.0344 5.26443 10.9361L1.98376 8.53811C1.81855 8.41714 1.69578 8.24705 1.63301 8.05214C1.57024 7.85723 1.57066 7.64746 1.63423 7.45281C1.6978 7.25816 1.82125 7.08857 1.98696 6.96827C2.15267 6.84798 2.35216 6.78313 2.55693 6.78298H6.59443C6.76204 6.78298 6.92532 6.72978 7.06076 6.63104C7.1962 6.53231 7.29681 6.39313 7.3481 6.23357L8.57519 2.40902C8.63817 2.21331 8.76163 2.04263 8.9278 1.92156C9.09396 1.80048 9.29426 1.73524 9.49985 1.73524C9.70545 1.73524 9.90575 1.80048 10.0719 1.92156C10.2381 2.04263 10.3615 2.21331 10.4245 2.40902L11.6516 6.23357C11.7029 6.39313 11.8035 6.53231 11.9389 6.63104C12.0744 6.72978 12.2377 6.78298 12.4053 6.78298H16.4428C16.6475 6.78313 16.847 6.84798 17.0127 6.96827C17.1785 7.08857 17.3019 7.25816 17.3655 7.45281C17.429 7.64746 17.4295 7.85723 17.3667 8.05214C17.3039 8.24705 17.1812 8.41714 17.0159 8.53811H17.0144Z" fill="#846399"/>
</g>
<defs>
<clipPath id="clip0_344_446">
<rect width="19" height="19" fill="white"/>
</clipPath>
</defs>
</svg>
