<svg width="768" height="709" viewBox="0 0 768 709" fill="none" xmlns="http://www.w3.org/2000/svg">
<g filter="url(#filter0_d_524_90)">
<path d="M218.02 574.56C336.453 570.836 437.762 488.35 465.414 373.13C485.392 289.889 544.645 221.586 624.231 190.055L654.939 177.888C869.271 92.9722 1101.72 250.908 1101.72 481.449V588.965C1101.72 801.062 936.008 976.203 724.235 987.922L35.6167 1026.03C-38.2167 1030.12 -109.267 997.301 -154.028 938.441C-263.626 794.324 -164.662 586.594 16.304 580.904L218.02 574.56Z" fill="#330E4B"/>
</g>
<g filter="url(#filter1_d_524_90)">
<path d="M423.462 493.093C503.052 493.093 571.613 436.997 587.373 358.983C597.24 310.141 628.375 268.243 672.294 244.705L694.257 232.935C781.156 186.363 888.421 203.234 956.828 274.231L1030.24 350.425C1235.48 563.434 1110.45 919.334 817.086 957.181L443.542 1005.37C331.943 1019.77 223.942 959.949 176.945 857.71L160.29 821.478C89.7493 668.021 201.864 493.093 370.757 493.093H423.462Z" fill="#330E4B"/>
</g>
<defs>
<filter id="filter0_d_524_90" x="-299.847" y="58.6143" width="1501.57" height="1071.76" filterUnits="userSpaceOnUse" color-interpolation-filters="sRGB">
<feFlood flood-opacity="0" result="BackgroundImageFix"/>
<feColorMatrix in="SourceAlpha" type="matrix" values="0 0 0 0 0 0 0 0 0 0 0 0 0 0 0 0 0 0 127 0" result="hardAlpha"/>
<feOffset dy="4"/>
<feGaussianBlur stdDeviation="50"/>
<feComposite in2="hardAlpha" operator="out"/>
<feColorMatrix type="matrix" values="0 0 0 0 0 0 0 0 0 0 0 0 0 0 0 0 0 0 0.35 0"/>
<feBlend mode="normal" in2="BackgroundImageFix" result="effect1_dropShadow_524_90"/>
<feBlend mode="normal" in="SourceGraphic" in2="effect1_dropShadow_524_90" result="shape"/>
</filter>
<filter id="filter1_d_524_90" x="38.8467" y="110.814" width="1192.57" height="1000.68" filterUnits="userSpaceOnUse" color-interpolation-filters="sRGB">
<feFlood flood-opacity="0" result="BackgroundImageFix"/>
<feColorMatrix in="SourceAlpha" type="matrix" values="0 0 0 0 0 0 0 0 0 0 0 0 0 0 0 0 0 0 127 0" result="hardAlpha"/>
<feOffset dy="4"/>
<feGaussianBlur stdDeviation="50"/>
<feComposite in2="hardAlpha" operator="out"/>
<feColorMatrix type="matrix" values="0 0 0 0 0 0 0 0 0 0 0 0 0 0 0 0 0 0 0.35 0"/>
<feBlend mode="normal" in2="BackgroundImageFix" result="effect1_dropShadow_524_90"/>
<feBlend mode="normal" in="SourceGraphic" in2="effect1_dropShadow_524_90" result="shape"/>
</filter>
</defs>
</svg>
