<svg width="24" height="24" viewBox="0 0 24 24" fill="none" xmlns="http://www.w3.org/2000/svg">
<path d="M23.1322 11.5603C23.118 11.2558 22.9835 10.9694 22.7581 10.7641C22.5328 10.5588 22.2351 10.4514 21.9306 10.4656C21.6261 10.4798 21.3397 10.6144 21.1344 10.8397C20.9291 11.0651 20.8218 11.3628 20.8359 11.6673C20.9326 13.7224 20.336 15.7504 19.1419 17.4257C17.9477 19.1011 16.2253 20.3267 14.2511 20.9057C12.2769 21.4848 10.1654 21.3837 8.25549 20.6188C6.3456 19.8539 4.74809 18.4694 3.7194 16.6877C2.69071 14.9059 2.29049 12.8302 2.58299 10.7937C2.87549 8.75725 3.84373 6.8781 5.33231 5.4579C6.82089 4.03771 8.74347 3.15884 10.7914 2.96237C12.8394 2.7659 14.894 3.26322 16.6255 4.37451C16.7525 4.45598 16.8944 4.51163 17.043 4.53827C17.1915 4.56492 17.3439 4.56204 17.4914 4.5298C17.6388 4.49756 17.7785 4.4366 17.9024 4.35038C18.0263 4.26417 18.132 4.1544 18.2134 4.02733C18.2949 3.90027 18.3506 3.7584 18.3772 3.60983C18.4038 3.46126 18.401 3.3089 18.3687 3.16144C18.3365 3.01399 18.2755 2.87432 18.1893 2.75043C18.1031 2.62653 17.9933 2.52083 17.8663 2.43936C15.7018 1.05101 13.1337 0.43006 10.5741 0.676163C8.0144 0.922266 5.61165 2.02115 3.75137 3.79646C1.8911 5.57178 0.681176 7.92058 0.315774 10.4659C-0.0496274 13.0113 0.450681 15.6056 1.73641 17.8326C3.02213 20.0595 5.01872 21.7899 7.40577 22.7462C9.79281 23.7024 12.4319 23.829 14.8995 23.1056C17.3671 22.3822 19.5201 20.8508 21.0131 18.7571C22.5061 16.6635 23.2524 14.1289 23.1322 11.5603Z" fill="white"/>
</svg>
