<svg width="15" height="15" viewBox="0 0 15 15" fill="none" xmlns="http://www.w3.org/2000/svg">
<path d="M9.375 12.5H3.125C2.2965 12.499 1.50222 12.1695 0.916387 11.5836C0.330551 10.9978 0.000992411 10.2035 0 9.375L0 3.125C0.000992411 2.2965 0.330551 1.50222 0.916387 0.916388C1.50222 0.330551 2.2965 0.000992411 3.125 0L9.375 0C10.2035 0.000992411 10.9978 0.330551 11.5836 0.916388C12.1694 1.50222 12.499 2.2965 12.5 3.125V9.375C12.499 10.2035 12.1694 10.9978 11.5836 11.5836C10.9978 12.1695 10.2035 12.499 9.375 12.5V12.5ZM3.125 1.25C2.62772 1.25 2.15081 1.44754 1.79917 1.79918C1.44754 2.15081 1.25 2.62772 1.25 3.125V9.375C1.25 9.87228 1.44754 10.3492 1.79917 10.7008C2.15081 11.0525 2.62772 11.25 3.125 11.25H9.375C9.87228 11.25 10.3492 11.0525 10.7008 10.7008C11.0525 10.3492 11.25 9.87228 11.25 9.375V3.125C11.25 2.62772 11.0525 2.15081 10.7008 1.79918C10.3492 1.44754 9.87228 1.25 9.375 1.25H3.125ZM15 11.875V3.75C15 3.58424 14.9342 3.42527 14.8169 3.30806C14.6997 3.19085 14.5408 3.125 14.375 3.125C14.2092 3.125 14.0503 3.19085 13.9331 3.30806C13.8158 3.42527 13.75 3.58424 13.75 3.75V11.875C13.75 12.3723 13.5525 12.8492 13.2008 13.2008C12.8492 13.5525 12.3723 13.75 11.875 13.75H3.75C3.58424 13.75 3.42527 13.8158 3.30806 13.9331C3.19085 14.0503 3.125 14.2092 3.125 14.375C3.125 14.5408 3.19085 14.6997 3.30806 14.8169C3.42527 14.9342 3.58424 15 3.75 15H11.875C12.7035 14.999 13.4978 14.6695 14.0836 14.0836C14.6694 13.4978 14.999 12.7035 15 11.875V11.875Z" fill="white" fill-opacity="0.3"/>
</svg>
