<svg width="13" height="9" viewBox="0 0 13 9" fill="none" xmlns="http://www.w3.org/2000/svg">
<path d="M12.0734 0.161458L4.58876 7.7425C4.53844 7.79368 4.47864 7.83428 4.41278 7.86199C4.34693 7.8897 4.27633 7.90396 4.20502 7.90396C4.13372 7.90396 4.06311 7.8897 3.99726 7.86199C3.93141 7.83428 3.87161 7.79368 3.82128 7.7425L0.926868 4.80785C0.876546 4.75668 0.816744 4.71607 0.750893 4.68836C0.685041 4.66066 0.614437 4.64639 0.543131 4.64639C0.471824 4.64639 0.40122 4.66066 0.335368 4.68836C0.269517 4.71607 0.209714 4.75668 0.159393 4.80785C0.108872 4.85882 0.0687857 4.9194 0.041433 4.98611C0.0140803 5.05281 0 5.12433 0 5.19656C0 5.26879 0.0140803 5.34031 0.041433 5.40701C0.0687857 5.47372 0.108872 5.53429 0.159393 5.58527L3.05489 8.51772C3.36034 8.82655 3.77427 9 4.20583 9C4.6374 9 5.05133 8.82655 5.35678 8.51772L12.8409 0.938325C12.8913 0.887362 12.9313 0.826819 12.9586 0.760166C12.9859 0.693512 13 0.622056 13 0.549891C13 0.477727 12.9859 0.406271 12.9586 0.339617C12.9313 0.272963 12.8913 0.212421 12.8409 0.161458C12.7906 0.110283 12.7308 0.0696768 12.6649 0.0419698C12.5991 0.0142628 12.5284 0 12.4571 0C12.3858 0 12.3152 0.0142628 12.2494 0.0419698C12.1835 0.0696768 12.1237 0.110283 12.0734 0.161458Z" fill="#6CC90F"/>
</svg>
